<svg preserveAspectRatio="none" width="100%" height="100%" overflow="visible" style="display: block;" viewBox="0 0 152.312 30.242" fill="none" xmlns="http://www.w3.org/2000/svg">
<g id="Group">
<path id="Vector" d="M3.19847 2.63572H0.538967V14.4628H2.20767V6.09932L3.63293 14.4628H5.44087L6.76193 5.98105V14.4628H8.56986V2.63572H5.91037L4.60667 11.0329L3.19847 2.63572Z" fill="var(--fill-0, white)"/>
<path id="Vector_2" d="M11.8728 4.32524H15.1755V2.63572H9.96072V14.4628H15.1755V12.7733H11.8728V9.30968H14.4976V7.61991H11.8728V4.32524Z" fill="var(--fill-0, white)"/>
<path id="Vector_3" d="M21.868 2.63572H19.9732V7.41731L17.7135 2.63572H15.8013L18.1656 7.48492L15.8013 14.4628H17.7656L19.504 9.20812L19.9732 10.1206V14.4628H21.868V10.1206L22.3375 9.22509L24.0757 14.4628H26.0402L23.6933 7.43428L26.0402 2.63572H24.1281L21.868 7.41731V2.63572Z" fill="var(--fill-0, white)"/>
<path id="Vector_4" d="M34.2798 16.051V12.807H33.4453V2.63572H28.0912L27.6568 11.2694C27.622 11.9621 27.5175 12.4015 27.1873 12.807H26.4399V16.051H28.2999V14.4628H32.385V16.051H34.2798ZM29.8818 4.32524H31.4984V12.807H28.9952C29.3081 12.5198 29.4821 12.1313 29.5342 11.2357L29.8818 4.32524Z" fill="var(--fill-0, white)"/>
<path id="Vector_5" d="M41.6328 2.63572H39.6338L38.7646 6.69069L38.3127 9.44467L37.7217 6.67372L36.6785 2.63572H34.7837L37.4261 11.7595L37.4088 11.8608C37.2522 12.7226 36.6961 12.8916 35.7224 12.8239V14.4798C38.3822 14.6487 39.1296 13.5842 39.5817 11.4553L41.6328 2.63572Z" fill="var(--fill-0, white)"/>
<path id="Vector_6" d="M44.3447 9.39401H46.5176V14.4628H48.4645V2.63572H46.5176V7.7045H44.3447V2.63572H42.4325V14.4628H44.3447V9.39401Z" fill="var(--fill-0, white)"/>
<path id="Vector_7" d="M54.0967 2.63572H51.298L49.3511 14.4628H51.1066L51.4369 12.3169H53.7838L54.1141 14.4628H56.0436L54.0967 2.63572ZM52.6017 4.73096L53.523 10.712H51.6803L52.6017 4.73096Z" fill="var(--fill-0, white)"/>
<path id="Vector_8" d="M59.7463 2.63572H56.9301V14.4628H58.8423V10.0193H59.7463C61.6584 10.0193 62.5971 8.98854 62.5971 7.09617V5.55862C62.5971 3.6665 61.6584 2.63572 59.7463 2.63572ZM59.7463 4.32524C60.3547 4.32524 60.685 4.59571 60.685 5.44034V7.21444C60.685 8.05932 60.3547 8.32955 59.7463 8.32955H58.8423V4.32524H59.7463Z" fill="var(--fill-0, white)"/>
<path id="Vector_9" d="M65.2392 5.35597C65.2392 4.51109 65.6216 4.19022 66.23 4.19022C66.8384 4.19022 67.2211 4.51109 67.2211 5.35597V11.7425C67.2211 12.5874 66.8384 12.9082 66.23 12.9082C65.6216 12.9082 65.2392 12.5874 65.2392 11.7425V5.35597ZM63.3271 11.6242C63.3271 13.5166 64.3526 14.598 66.23 14.598C68.1074 14.598 69.1332 13.5166 69.1332 11.6242V5.47426C69.1332 3.58188 68.1074 2.5007 66.23 2.5007C64.3526 2.5007 63.3271 3.58188 63.3271 5.47426V11.6242Z" fill="var(--fill-0, white)"/>
<path id="Vector_10" d="M77.7899 16.051V12.807H76.9557V2.63572H71.6014L71.1669 11.2694C71.1322 11.9621 71.028 12.4015 70.6977 12.807H69.95V16.051H71.8101V14.4628H75.8951V16.051H77.7899ZM73.3919 4.32524H75.0085V12.807H72.5053C72.8182 12.5198 72.9922 12.1313 73.0443 11.2357L73.3919 4.32524Z" fill="var(--fill-0, white)"/>
<path id="Vector_11" d="M80.7626 9.39401H82.9356V14.4628H84.8824V2.63572H82.9356V7.7045H80.7626V2.63572H78.8505V14.4628H80.7626V9.39401Z" fill="var(--fill-0, white)"/>
<path id="Vector_12" d="M89.089 14.4628C91.0012 14.4628 91.9399 13.432 91.9399 11.5399V10.0023C91.9399 8.10997 91.0012 7.07946 89.089 7.07946H88.1851V2.63572H86.2729V14.4628H89.089ZM88.1851 12.7733V8.76896H89.089C89.6975 8.76896 90.0277 9.03919 90.0277 9.88408V11.6582C90.0277 12.5028 89.6975 12.7733 89.089 12.7733H88.1851ZM94.9473 14.4628V2.63572H93.0352V14.4628H94.9473Z" fill="var(--fill-0, white)"/>
<path id="Vector_13" d="M98.3021 14.4628H96.3379V2.63569H98.0416V10.1206L98.7369 7.51857L100.301 2.63569H102.405V14.4628H100.684V6.13324L99.9013 9.03916L98.3021 14.4628ZM100.267 0C100.214 0.62505 99.9187 0.777253 99.3974 0.777253C98.8932 0.777253 98.6324 0.62505 98.5803 0H97.3981C97.4332 1.14905 98.059 1.8754 99.3974 1.8754C100.753 1.8754 101.431 1.14905 101.431 0H100.267Z" fill="var(--fill-0, white)"/>
<path id="Vector_14" d="M2.44437e-05 19.9694H1.99899V30.1069H3.91112V19.9694H5.91039V18.2798H2.44437e-05V19.9694Z" fill="var(--fill-0, white)"/>
<path id="Vector_15" d="M13.0373 18.2798H11.0383L10.1691 22.3348L9.71727 25.0888L9.1262 22.3178L8.0833 18.2798H6.18854L8.83067 27.4036L8.8133 27.5049C8.6567 28.3665 8.10067 28.5354 7.12724 28.4681V30.1236C9.78673 30.2926 10.5341 29.2284 10.9862 27.0994L13.0373 18.2798Z" fill="var(--fill-0, white)"/>
<path id="Vector_16" d="M16.6532 18.2798H13.8371V30.1069H15.7492V25.6632H16.6532C18.5653 25.6632 19.504 24.6327 19.504 22.7403V21.2027C19.504 19.3104 18.5653 18.2798 16.6532 18.2798ZM16.6532 19.9694C17.2616 19.9694 17.5919 20.2398 17.5919 21.0845V22.8586C17.5919 23.7034 17.2616 23.9737 16.6532 23.9737H15.7492V19.9694H16.6532Z" fill="var(--fill-0, white)"/>
<path id="Vector_17" d="M22.3027 25.0381H24.4757V30.1069H26.4225V18.2798H24.4757V23.3486H22.3027V18.2798H20.3906V30.1069H22.3027V25.0381Z" fill="var(--fill-0, white)"/>
<path id="Vector_18" d="M31.3768 24.6833L32.1589 21.7771V30.1069H33.8797V18.2798H31.7766L30.2121 23.1627L29.5168 25.7648V18.2798H27.8131V30.1069H29.7773L31.3768 24.6833Z" fill="var(--fill-0, white)"/>
<path id="Vector_19" d="M38.0519 18.2798H35.2358V30.1069H37.148V25.6632H38.0519C39.9641 25.6632 40.9028 24.6327 40.9028 22.7403V21.2027C40.9028 19.3104 39.9641 18.2798 38.0519 18.2798ZM38.0519 19.9694C38.6604 19.9694 38.9906 20.2398 38.9906 21.0845V22.8586C38.9906 23.7034 38.6604 23.9737 38.0519 23.9737H37.148V19.9694H38.0519Z" fill="var(--fill-0, white)"/>
<path id="Vector_20" d="M45.8571 19.9694H48.0297V30.1069H49.9769V18.2798H43.9449V30.1069H45.8571V19.9694Z" fill="var(--fill-0, white)"/>
<path id="Vector_21" d="M53.1232 21.0002C53.1232 20.1553 53.5056 19.8344 54.114 19.8344C54.7225 19.8344 55.1048 20.1553 55.1048 21.0002V27.3867C55.1048 28.2316 54.7225 28.5524 54.114 28.5524C53.5056 28.5524 53.1232 28.2316 53.1232 27.3867V21.0002ZM51.2111 27.2684C51.2111 29.1608 52.2366 30.242 54.114 30.242C55.9914 30.242 57.017 29.1608 57.017 27.2684V21.1185C57.017 19.2261 55.9914 18.1446 54.114 18.1446C52.2366 18.1446 51.2111 19.2261 51.2111 21.1185V27.2684Z" fill="var(--fill-0, white)"/>
<path id="Vector_22" d="M63.4489 30.1069C65.3611 30.1069 66.3345 29.0761 66.3345 27.1838V25.9167C66.3345 24.0243 65.3611 22.9938 63.4489 22.9938H62.3363V19.9694H65.7782V18.2798H60.4241V30.1069H63.4489ZM62.3363 28.4172V24.6833H63.4489C64.0571 24.6833 64.4224 24.9536 64.4224 25.7984V27.3021C64.4224 28.1469 64.0571 28.4172 63.4489 28.4172H62.3363Z" fill="var(--fill-0, white)"/>
<path id="Vector_23" d="M71.8622 18.2798H69.0634L67.1166 30.1069H68.8724L69.2027 27.961H71.5493L71.8795 30.1069H73.809L71.8622 18.2798ZM70.3671 20.3748L71.2885 26.3559H69.4461L70.3671 20.3748Z" fill="var(--fill-0, white)"/>
<path id="Vector_24" d="M78.4331 25.6972V27.3867C78.4331 28.2316 78.0507 28.5355 77.4423 28.5355C76.8339 28.5355 76.4515 28.2316 76.4515 27.3867V21.0002C76.4515 20.1553 76.8339 19.8344 77.4423 19.8344C78.0507 19.8344 78.4331 20.1553 78.4331 21.0002V22.2673H80.241V21.1185C80.241 19.2261 79.2676 18.1446 77.3902 18.1446C75.5128 18.1446 74.5394 19.2261 74.5394 21.1185V27.2684C74.5394 29.1608 75.5128 30.242 77.3902 30.242C79.2676 30.242 80.241 29.1608 80.241 27.2684V25.6972H78.4331Z" fill="var(--fill-0, white)"/>
<path id="Vector_25" d="M85.7687 30.1069H87.7333L85.0735 23.5512L87.7333 18.2798H85.8211L83.3179 23.433V18.2798H81.4058V30.1069H83.3179V26.4741L83.9087 25.393L85.7687 30.1069Z" fill="var(--fill-0, white)"/>
<path id="Vector_26" d="M90.5143 19.9694H93.8173V18.2798H88.6022V30.1069H93.8173V28.4172H90.5143V24.9536H93.1394V23.264H90.5143V19.9694Z" fill="var(--fill-0, white)"/>
<path id="Vector_27" d="M94.4431 19.9694H96.4421V30.1069H98.3542V19.9694H100.353V18.2798H94.4431V19.9694Z" fill="var(--fill-0, white)"/>
<path id="Vector_28" d="M104.23 30.1069C106.142 30.1069 107.115 29.0761 107.115 27.1838V25.9167C107.115 24.0243 106.142 22.9938 104.23 22.9938H103.117V19.9694H106.559V18.2798H101.205V30.1069H104.23ZM103.117 28.4172V24.6833H104.23C104.838 24.6833 105.203 24.9536 105.203 25.7984V27.3021C105.203 28.1469 104.838 28.4172 104.23 28.4172H103.117Z" fill="var(--fill-0, white)"/>
<path id="Vector_29" d="M110.158 21.0002C110.158 20.1553 110.54 19.8344 111.148 19.8344C111.757 19.8344 112.139 20.1553 112.139 21.0002V27.3867C112.139 28.2316 111.757 28.5524 111.148 28.5524C110.54 28.5524 110.158 28.2316 110.158 27.3867V21.0002ZM108.245 27.2684C108.245 29.1608 109.271 30.242 111.148 30.242C113.026 30.242 114.051 29.1608 114.051 27.2684V21.1185C114.051 19.2261 113.026 18.1446 111.148 18.1446C109.271 18.1446 108.245 19.2261 108.245 21.1185V27.2684Z" fill="var(--fill-0, white)"/>
<path id="Vector_30" d="M114.747 30.1236H115.042C116.954 30.1236 117.754 29.279 117.823 27.1164L118.032 19.9694H119.701V30.1069H121.648V18.2798H116.242L115.929 27.2177C115.894 28.3159 115.616 28.4341 114.747 28.4341V30.1236Z" fill="var(--fill-0, white)"/>
<path id="Vector_31" d="M129.401 18.2798H127.402L126.533 22.3348L126.08 25.0888L125.49 22.3178L124.446 18.2798H122.552L125.194 27.4036L125.177 27.5049C125.02 28.3665 124.464 28.5354 123.49 28.4681V30.1236C126.15 30.2926 126.898 29.2284 127.349 27.0994L129.401 18.2798Z" fill="var(--fill-0, white)"/>
<path id="Vector_32" d="M136.041 21.8448C136.041 22.791 135.607 23.0952 134.894 23.0952H134.146V24.7847H134.789C135.659 24.7847 136.041 25.1901 136.041 26.2885V27.2178C136.041 28.2653 135.659 28.5524 135.05 28.5524C134.442 28.5524 134.059 28.2316 134.059 27.3867V26.2885H132.252V27.2684C132.252 29.1608 133.225 30.242 135.102 30.242C136.98 30.242 137.953 29.1608 137.953 27.2684V26.3392C137.953 25.1395 137.571 24.2609 136.615 23.8555C137.536 23.4837 137.953 22.6897 137.953 21.4224V21.1185C137.953 19.2261 136.98 18.1446 135.102 18.1446C133.225 18.1446 132.252 19.2261 132.252 21.1185V21.7605H134.059V21.0002C134.059 20.1553 134.442 19.8344 135.05 19.8344C135.659 19.8344 136.041 20.1216 136.041 21.1858V21.8448Z" fill="var(--fill-0, white)"/>
<path id="Vector_33" d="M143.846 18.2798L142.369 22.639L140.926 18.2798H138.944L140.943 24.0243L138.805 30.1069H140.596L142.178 25.4266L143.742 30.1069H145.758L143.62 24.0243L145.619 18.2798H143.846Z" fill="var(--fill-0, white)"/>
<path id="Vector_34" d="M150.4 21.8448C150.4 22.791 149.965 23.0952 149.252 23.0952H148.505V24.7847H149.148C150.017 24.7847 150.4 25.1901 150.4 26.2885V27.2178C150.4 28.2653 150.017 28.5524 149.409 28.5524C148.801 28.5524 148.418 28.2316 148.418 27.3867V26.2885H146.61V27.2684C146.61 29.1608 147.584 30.242 149.461 30.242C151.338 30.242 152.312 29.1608 152.312 27.2684V26.3392C152.312 25.1395 151.93 24.2609 150.973 23.8555C151.895 23.4837 152.312 22.6897 152.312 21.4224V21.1185C152.312 19.2261 151.338 18.1446 149.461 18.1446C147.584 18.1446 146.61 19.2261 146.61 21.1185V21.7605H148.418V21.0002C148.418 20.1553 148.801 19.8344 149.409 19.8344C150.017 19.8344 150.4 20.1216 150.4 21.1858V21.8448Z" fill="var(--fill-0, white)"/>
</g>
</svg>
