<svg preserveAspectRatio="none" width="100%" height="100%" overflow="visible" style="display: block;" viewBox="0 0 25.6667 36.6667" fill="none" xmlns="http://www.w3.org/2000/svg">
<g id="Group">
<path id="Vector" d="M12.8334 0C5.73839 0 6.10352e-05 5.73833 6.10352e-05 12.8333C6.10352e-05 22.4583 12.8334 36.6667 12.8334 36.6667C12.8334 36.6667 25.6667 22.4583 25.6667 12.8333C25.6667 5.73833 19.9284 0 12.8334 0ZM12.8334 17.4167C11.6178 17.4167 10.452 16.9338 9.59249 16.0742C8.73295 15.2147 8.25006 14.0489 8.25006 12.8333C8.25006 11.6178 8.73295 10.452 9.59249 9.59243C10.452 8.73289 11.6178 8.25 12.8334 8.25C14.049 8.25 15.2148 8.73289 16.0743 9.59243C16.9338 10.452 17.4167 11.6178 17.4167 12.8333C17.4167 14.0489 16.9338 15.2147 16.0743 16.0742C15.2148 16.9338 14.049 17.4167 12.8334 17.4167Z" fill="var(--fill-0, #D85A21)"/>
</g>
</svg>
