<svg preserveAspectRatio="none" width="100%" height="100%" overflow="visible" style="display: block;" viewBox="0 0 36.6667 35.8333" fill="none" xmlns="http://www.w3.org/2000/svg">
<g id="Group">
<path id="Vector" d="M0 12C0 8.54233 -1.09267e-07 6.81533 1.07433 5.741C2.14867 4.66666 3.87567 4.66666 7.33333 4.66666H29.3333C32.791 4.66666 34.518 4.66666 35.5923 5.741C36.6667 6.81533 36.6667 8.54233 36.6667 12C36.6667 12.8635 36.6667 13.2962 36.399 13.5657C36.1295 13.8333 35.695 13.8333 34.8333 13.8333H1.83333C0.969833 13.8333 0.537167 13.8333 0.267667 13.5657C-1.63905e-07 13.2962 0 12.8617 0 12ZM0 28.5C0 31.9577 -1.09267e-07 33.6847 1.07433 34.759C2.14867 35.8333 3.87567 35.8333 7.33333 35.8333H29.3333C32.791 35.8333 34.518 35.8333 35.5923 34.759C36.6667 33.6847 36.6667 31.9577 36.6667 28.5V19.3333C36.6667 18.4698 36.6667 18.0372 36.399 17.7677C36.1295 17.5 35.695 17.5 34.8333 17.5H1.83333C0.969833 17.5 0.537167 17.5 0.267667 17.7677C-1.63905e-07 18.0372 0 18.4717 0 19.3333V28.5Z" fill="var(--fill-0, #D85A21)"/>
<path id="Vector_2" d="M9.16669 1V6.5M27.5 1V6.5" stroke="var(--stroke-0, #D85A21)" stroke-width="2" stroke-linecap="round"/>
</g>
</svg>
