<svg preserveAspectRatio="none" width="100%" height="100%" overflow="visible" style="display: block;" viewBox="0 0 27 26.3863" fill="none" xmlns="http://www.w3.org/2000/svg">
<g id="Group">
<path id="Vector" d="M0 8.83627C0 6.29017 -8.04663e-08 5.01847 0.7911 4.22737C1.5822 3.43627 2.8539 3.43627 5.4 3.43627H21.6C24.1461 3.43627 25.4178 3.43627 26.2089 4.22737C27 5.01847 27 6.29017 27 8.83627C27 9.47212 27 9.79072 26.8029 9.98917C26.6045 10.1863 26.2845 10.1863 25.65 10.1863H1.35C0.71415 10.1863 0.39555 10.1863 0.1971 9.98917C-1.20699e-07 9.79072 0 9.47077 0 8.83627ZM0 20.9863C0 23.5324 -8.04663e-08 24.8041 0.7911 25.5952C1.5822 26.3863 2.8539 26.3863 5.4 26.3863H21.6C24.1461 26.3863 25.4178 26.3863 26.2089 25.5952C27 24.8041 27 23.5324 27 20.9863V14.2363C27 13.6004 27 13.2818 26.8029 13.0834C26.6045 12.8863 26.2845 12.8863 25.65 12.8863H1.35C0.71415 12.8863 0.39555 12.8863 0.1971 13.0834C-1.20699e-07 13.2818 0 13.6018 0 14.2363V20.9863Z" fill="var(--fill-0, #D85A21)"/>
<path id="Vector_2" d="M6.74998 0.736364V4.78636M20.25 0.736364V4.78636" stroke="var(--stroke-0, #D85A21)" stroke-width="1.47273" stroke-linecap="round"/>
</g>
</svg>
