<svg preserveAspectRatio="none" width="100%" height="100%" overflow="visible" style="display: block;" viewBox="0 0 49.0002 29" fill="none" xmlns="http://www.w3.org/2000/svg">
<path id="Vector" d="M47.031 28.9977H41.6659C39.6369 28.9977 39.0256 27.3605 35.3885 23.7347C32.2098 20.6828 30.8673 20.3034 30.0633 20.3034C28.9512 20.3034 28.6479 20.6079 28.6479 22.1326V26.9389C28.6479 28.2388 28.2247 29 24.8157 29C21.5084 28.7787 18.3012 27.7777 15.4583 26.0796C12.6154 24.3815 10.2181 22.0349 8.46389 19.233C4.30016 14.0675 1.4022 8.00639 0 1.53054C0 0.729501 0.305641 0.00341561 1.83855 0.00341561H7.19901C8.57674 0.00341561 9.07282 0.614734 9.61357 2.02709C12.2162 9.65801 16.6574 16.2958 18.4607 16.2958C19.1519 16.2958 19.4528 15.9914 19.4528 14.2745V6.41405C19.2248 2.82812 17.3134 2.52598 17.3134 1.22839C17.3375 0.886057 17.4947 0.566597 17.7515 0.337868C18.0084 0.109138 18.3446 -0.010841 18.6887 0.00341561H27.115C28.267 0.00341561 28.6479 0.574915 28.6479 1.94745V12.5577C28.6479 13.703 29.1417 14.0825 29.4896 14.0825C30.1808 14.0825 30.7122 13.703 31.9794 12.4429C34.6946 9.14193 36.9138 5.46524 38.5671 1.5282C38.7356 1.05498 39.0551 0.649847 39.4768 0.374864C39.8985 0.0998821 40.399 -0.0297763 40.9018 0.00575765H46.2646C47.8727 0.00575765 48.2136 0.806795 47.8727 1.94979C45.9216 6.30232 43.5082 10.4341 40.6737 14.2745C40.0953 15.1528 39.8649 15.6096 40.6737 16.6401C41.205 17.4412 43.0859 19.0058 44.3484 20.4931C46.187 22.32 47.7128 24.4327 48.8672 26.7468C49.328 28.2364 48.5616 28.9977 47.031 28.9977Z" fill="var(--fill-0, white)"/>
</svg>
