<svg preserveAspectRatio="none" width="100%" height="100%" overflow="visible" style="display: block;" viewBox="0 0 566.629 187.499" fill="none" xmlns="http://www.w3.org/2000/svg">
<g id="&#208;&#151;&#208;&#176;&#208;&#179;&#208;&#190;&#208;&#187;&#208;&#190;&#208;&#178;&#208;&#190;&#208;&#186;" filter="url(#filter0_d_2042_429)">
<path id="Vector" d="M117.01 27.0796H107.826V67.9206H113.588V39.04L118.51 67.9206H124.753L129.315 38.6316V67.9206H135.558V27.0796H126.374L121.872 56.0765L117.01 27.0796Z" fill="var(--fill-0, white)"/>
<path id="Vector_2" d="M146.964 32.9138H158.369V27.0796H140.361V67.9206H158.369V62.0864H146.964V50.1259H156.028V44.2909H146.964V32.9138Z" fill="var(--fill-0, white)"/>
<path id="Vector_3" d="M181.479 27.0796H174.936V43.5912L167.132 27.0796H160.529L168.694 43.8247L160.529 67.9206H167.312L173.316 49.7752L174.936 52.9263V67.9206H181.479V52.9263L183.1 49.8339L189.102 67.9206H195.886L187.782 43.6499L195.886 27.0796H189.283L181.479 43.5912V27.0796Z" fill="var(--fill-0, white)"/>
<path id="Vector_4" d="M224.339 73.4049V62.2027H221.458V27.0796H202.969L201.469 56.8933C201.349 59.2852 200.988 60.8026 199.848 62.2027H197.267V73.4049H203.69V67.9206H217.797V73.4049H224.339ZM209.153 32.9138H214.735V62.2027H206.091C207.171 61.211 207.772 59.8694 207.952 56.7769L209.153 32.9138Z" fill="var(--fill-0, white)"/>
<path id="Vector_5" d="M249.731 27.0796H242.828L239.826 41.0821L238.266 50.5921L236.225 41.0235L232.622 27.0796H226.08L235.204 58.5855L235.144 58.9354C234.604 61.9115 232.683 62.4948 229.321 62.2613V67.9792C238.506 68.5625 241.087 64.8867 242.648 57.5352L249.731 27.0796Z" fill="var(--fill-0, white)"/>
<path id="Vector_6" d="M259.095 50.4172H266.598V67.9206H273.321V27.0796H266.598V44.583H259.095V27.0796H252.492V67.9206H259.095V50.4172Z" fill="var(--fill-0, white)"/>
<path id="Vector_7" d="M292.77 27.0796H283.106L276.383 67.9206H282.445L283.586 60.5105H291.69L292.83 67.9206H299.493L292.77 27.0796ZM287.608 34.3148L290.789 54.9684H284.426L287.608 34.3148Z" fill="var(--fill-0, white)"/>
<path id="Vector_8" d="M312.279 27.0796H302.555V67.9206H309.158V52.5765H312.279C318.882 52.5765 322.124 49.017 322.124 42.4823V37.1729C322.124 30.639 318.882 27.0796 312.279 27.0796ZM312.279 32.9138C314.38 32.9138 315.521 33.8478 315.521 36.7644V42.8907C315.521 45.8082 314.38 46.7414 312.279 46.7414H309.158V32.9138H312.279Z" fill="var(--fill-0, white)"/>
<path id="Vector_9" d="M331.247 36.4729C331.247 33.5554 332.567 32.4473 334.668 32.4473C336.769 32.4473 338.091 33.5554 338.091 36.4729V58.5267C338.091 61.4442 336.769 62.5523 334.668 62.5523C332.567 62.5523 331.247 61.4442 331.247 58.5267V36.4729ZM324.644 58.1182C324.644 64.6529 328.185 68.3873 334.668 68.3873C341.151 68.3873 344.694 64.6529 344.694 58.1182V36.8813C344.694 30.3466 341.151 26.6131 334.668 26.6131C328.185 26.6131 324.644 30.3466 324.644 36.8813V58.1182Z" fill="var(--fill-0, white)"/>
<path id="Vector_10" d="M374.588 73.4049V62.2027H371.707V27.0796H353.219L351.717 56.8933C351.597 59.2852 351.238 60.8026 350.097 62.2027H347.515V73.4049H353.938V67.9206H368.045V73.4049H374.588ZM359.401 32.9138H364.983V62.2027H356.339C357.42 61.211 358.02 59.8694 358.2 56.7769L359.401 32.9138Z" fill="var(--fill-0, white)"/>
<path id="Vector_11" d="M384.853 50.4172H392.356V67.9206H399.079V27.0796H392.356V44.583H384.853V27.0796H378.25V67.9206H384.853V50.4172Z" fill="var(--fill-0, white)"/>
<path id="Vector_12" d="M413.606 67.9206C420.209 67.9206 423.45 64.3612 423.45 57.8273V52.5178C423.45 45.9831 420.209 42.4246 413.606 42.4246H410.484V27.0796H403.881V67.9206H413.606ZM410.484 62.0864V48.2587H413.606C415.707 48.2587 416.847 49.1919 416.847 52.1094V58.2357C416.847 61.1524 415.707 62.0864 413.606 62.0864H410.484ZM433.836 67.9206V27.0796H427.233V67.9206H433.836Z" fill="var(--fill-0, white)"/>
<path id="Vector_13" d="M445.42 67.9205H438.637V27.0795H444.52V52.9262L446.921 43.941L452.324 27.0795H459.586V67.9205H453.644V39.1572L450.942 49.1919L445.42 67.9205ZM452.204 17.978C452.023 20.1364 451.003 20.662 449.202 20.662C447.461 20.662 446.56 20.1364 446.38 17.978H442.298C442.419 21.9459 444.58 24.4541 449.202 24.4541C453.884 24.4541 456.225 21.9459 456.225 17.978H452.204Z" fill="var(--fill-0, white)"/>
<path id="Vector_14" d="M19.9755 86.9364H26.8783V121.943H33.4813V86.9364H40.3851V81.1022H19.9755V86.9364Z" fill="var(--fill-0, white)"/>
<path id="Vector_15" d="M64.9964 81.1022H58.0936L55.092 95.1047L53.5317 104.615L51.4906 95.0461L47.8893 81.1022H41.3463L50.4701 112.608L50.4101 112.958C49.8694 115.933 47.9493 116.517 44.5878 116.284V122.001C53.7716 122.584 56.3524 118.909 57.9137 111.558L64.9964 81.1022Z" fill="var(--fill-0, white)"/>
<path id="Vector_16" d="M77.4821 81.1022H67.7576V121.943H74.3605V106.598H77.4821C84.085 106.598 87.3265 103.04 87.3265 96.5049V91.1955C87.3265 84.6608 84.085 81.1022 77.4821 81.1022ZM77.4821 86.9364C79.5831 86.9364 80.7236 87.8704 80.7236 90.787V96.9133C80.7236 99.8309 79.5831 100.764 77.4821 100.764H74.3605V86.9364H77.4821Z" fill="var(--fill-0, white)"/>
<path id="Vector_17" d="M96.9914 104.44H104.495V121.943H111.218V81.1022H104.495V98.6056H96.9914V81.1022H90.3885V121.943H96.9914V104.44Z" fill="var(--fill-0, white)"/>
<path id="Vector_18" d="M128.326 103.215L131.027 93.179V121.943H136.969V81.1022H129.706L124.304 97.9637L121.903 106.949V81.1022H116.02V121.943H122.803L128.326 103.215Z" fill="var(--fill-0, white)"/>
<path id="Vector_19" d="M151.375 81.1022H141.651V121.943H148.254V106.598H151.375C157.978 106.598 161.22 103.04 161.22 96.5049V91.1955C161.22 84.6608 157.978 81.1022 151.375 81.1022ZM151.375 86.9364C153.476 86.9364 154.617 87.8704 154.617 90.787V96.9133C154.617 99.8309 153.476 100.764 151.375 100.764H148.254V86.9364H151.375Z" fill="var(--fill-0, white)"/>
<path id="Vector_20" d="M178.329 86.9364H185.831V121.943H192.555V81.1022H171.726V121.943H178.329V86.9364Z" fill="var(--fill-0, white)"/>
<path id="Vector_21" d="M203.42 90.4956C203.42 87.578 204.741 86.47 206.842 86.47C208.943 86.47 210.263 87.578 210.263 90.4956V112.549C210.263 115.467 208.943 116.575 206.842 116.575C204.741 116.575 203.42 115.467 203.42 112.549V90.4956ZM196.817 112.141C196.817 118.676 200.359 122.409 206.842 122.409C213.325 122.409 216.866 118.676 216.866 112.141V90.904C216.866 84.3693 213.325 80.6349 206.842 80.6349C200.359 80.6349 196.817 84.3693 196.817 90.904V112.141Z" fill="var(--fill-0, white)"/>
<path id="Vector_22" d="M239.076 121.943C245.679 121.943 249.041 118.384 249.041 111.849V107.474C249.041 100.939 245.679 97.3803 239.076 97.3803H235.234V86.9364H247.12V81.1022H228.631V121.943H239.076ZM235.234 116.108V103.215H239.076C241.176 103.215 242.438 104.148 242.438 107.065V112.258C242.438 115.175 241.176 116.108 239.076 116.108H235.234Z" fill="var(--fill-0, white)"/>
<path id="Vector_23" d="M268.129 81.1022H258.464L251.741 121.943H257.804L258.945 114.533H267.048L268.188 121.943H274.851L268.129 81.1022ZM262.966 88.3365L266.147 108.99H259.785L262.966 88.3365Z" fill="var(--fill-0, white)"/>
<path id="Vector_24" d="M290.819 106.715V112.549C290.819 115.467 289.499 116.516 287.398 116.516C285.297 116.516 283.976 115.467 283.976 112.549V90.4956C283.976 87.578 285.297 86.47 287.398 86.47C289.499 86.47 290.819 87.578 290.819 90.4956V94.871H297.062V90.904C297.062 84.3693 293.701 80.6349 287.218 80.6349C280.735 80.6349 277.373 84.3693 277.373 90.904V112.141C277.373 118.676 280.735 122.409 287.218 122.409C293.701 122.409 297.062 118.676 297.062 112.141V106.715H290.819Z" fill="var(--fill-0, white)"/>
<path id="Vector_25" d="M316.151 121.943H322.934L313.75 99.3053L322.934 81.1022H316.331L307.687 98.8968V81.1022H301.085V121.943H307.687V109.399L309.727 105.665L316.151 121.943Z" fill="var(--fill-0, white)"/>
<path id="Vector_26" d="M332.539 86.9364H343.944V81.1022H325.936V121.943H343.944V116.108H332.539V104.148H341.603V98.3135H332.539V86.9364Z" fill="var(--fill-0, white)"/>
<path id="Vector_27" d="M346.105 86.9364H353.007V121.943H359.61V86.9364H366.514V81.1022H346.105V86.9364Z" fill="var(--fill-0, white)"/>
<path id="Vector_28" d="M379.9 121.943C386.503 121.943 389.864 118.384 389.864 111.849V107.474C389.864 100.939 386.503 97.3803 379.9 97.3803H376.058V86.9364H387.943V81.1022H369.455V121.943H379.9ZM376.058 116.108V103.215H379.9C382.001 103.215 383.261 104.148 383.261 107.065V112.258C383.261 115.175 382.001 116.108 379.9 116.108H376.058Z" fill="var(--fill-0, white)"/>
<path id="Vector_29" d="M400.369 90.4956C400.369 87.578 401.69 86.47 403.791 86.47C405.892 86.47 407.212 87.578 407.212 90.4956V112.549C407.212 115.467 405.892 116.575 403.791 116.575C401.69 116.575 400.369 115.467 400.369 112.549V90.4956ZM393.766 112.141C393.766 118.676 397.308 122.409 403.791 122.409C410.274 122.409 413.815 118.676 413.815 112.141V90.904C413.815 84.3693 410.274 80.6349 403.791 80.6349C397.308 80.6349 393.766 84.3693 393.766 90.904V112.141Z" fill="var(--fill-0, white)"/>
<path id="Vector_30" d="M416.216 122.001H417.237C423.84 122.001 426.602 119.084 426.841 111.616L427.562 86.9364H433.324V121.943H440.047V81.1022H421.379L420.298 111.966C420.179 115.758 419.218 116.167 416.216 116.167V122.001Z" fill="var(--fill-0, white)"/>
<path id="Vector_31" d="M466.819 81.1022H459.917L456.915 95.1047L455.354 104.615L453.314 95.0461L449.711 81.1022H443.168L452.293 112.608L452.233 112.958C451.692 115.933 449.771 116.517 446.41 116.284V122.001C455.595 122.584 458.175 118.909 459.736 111.558L466.819 81.1022Z" fill="var(--fill-0, white)"/>
<path id="Vector_32" d="M489.75 93.4122C489.75 96.6796 488.25 97.7299 485.788 97.7299H483.207V103.564H485.428C488.43 103.564 489.75 104.964 489.75 108.757V111.966C489.75 115.583 488.43 116.575 486.329 116.575C484.228 116.575 482.907 115.467 482.907 112.549V108.757H476.664V112.141C476.664 118.676 480.025 122.409 486.508 122.409C492.991 122.409 496.353 118.676 496.353 112.141V108.932C496.353 104.789 495.033 101.756 491.731 100.355C494.913 99.0715 496.353 96.3298 496.353 91.9535V90.904C496.353 84.3693 492.991 80.6349 486.508 80.6349C480.025 80.6349 476.664 84.3693 476.664 90.904V93.121H482.907V90.4956C482.907 87.578 484.228 86.47 486.329 86.47C488.43 86.47 489.75 87.4617 489.75 91.1366V93.4122Z" fill="var(--fill-0, white)"/>
<path id="Vector_33" d="M516.703 81.1022L511.6 96.1551L506.618 81.1022H499.775L506.678 100.939L499.295 121.943H505.478L510.94 105.781L516.343 121.943H523.306L515.922 100.939L522.826 81.1022H516.703Z" fill="var(--fill-0, white)"/>
<path id="Vector_34" d="M539.334 93.4122C539.334 96.6796 537.833 97.7299 535.372 97.7299H532.791V103.564H535.012C538.013 103.564 539.334 104.964 539.334 108.757V111.966C539.334 115.583 538.013 116.575 535.913 116.575C533.812 116.575 532.49 115.467 532.49 112.549V108.757H526.248V112.141C526.248 118.676 529.609 122.409 536.092 122.409C542.575 122.409 545.937 118.676 545.937 112.141V108.932C545.937 104.789 544.616 101.756 541.315 100.355C544.496 99.0715 545.937 96.3298 545.937 91.9535V90.904C545.937 84.3693 542.575 80.6349 536.092 80.6349C529.609 80.6349 526.248 84.3693 526.248 90.904V93.121H532.49V90.4956C532.49 87.578 533.812 86.47 535.913 86.47C538.013 86.47 539.334 87.4617 539.334 91.1366V93.4122Z" fill="var(--fill-0, white)"/>
<g id="Group">
<path id="Vector_35" d="M24.7212 154.785H29.076V165.247H32.9777V140.835H29.076V151.297H24.7212V140.835H20.889V165.247H24.7212V154.785Z" fill="var(--fill-0, #D85A21)"/>
</g>
<g id="Group_2">
<path id="Vector_36" d="M44.2646 140.835H38.6558L34.754 165.247H38.2727L38.9344 160.818H43.6378L44.2996 165.247H48.1663L44.2646 140.835ZM41.2684 145.159L43.1149 157.505H39.4224L41.2684 145.159Z" fill="var(--fill-0, #D85A21)"/>
</g>
<g id="Group_3">
<path id="Vector_37" d="M64.0875 165.247H68.0242L62.694 151.716L68.0242 140.835H64.1919L59.1754 151.472V140.835H55.3435V165.247H59.1754V157.749L60.36 155.517L64.0875 165.247Z" fill="var(--fill-0, #D85A21)"/>
</g>
<g id="Group_4">
<path id="Vector_38" d="M82.3771 140.835H78.371L76.6289 149.205L75.7234 154.89L74.5387 149.17L72.4485 140.835H68.6516L73.9468 159.667L73.9118 159.877C73.5982 161.655 72.4834 162.004 70.5325 161.865V165.282C75.8627 165.631 77.3606 163.434 78.2666 159.04L82.3771 140.835Z" fill="var(--fill-0, #D85A21)"/>
</g>
<g id="Group_5">
<path id="Vector_39" d="M90.0754 165.247C93.9077 165.247 95.8585 163.12 95.8585 159.214V156.598C95.8585 152.692 93.9077 150.565 90.0754 150.565H87.8458V144.322H94.7437V140.835H84.014V165.247H90.0754ZM87.8458 161.76V154.053H90.0754C91.2946 154.053 92.0262 154.611 92.0262 156.354V159.458C92.0262 161.202 91.2946 161.76 90.0754 161.76H87.8458Z" fill="var(--fill-0, #D85A21)"/>
</g>
<g id="Group_6">
<path id="Vector_40" d="M101.955 146.45C101.955 144.706 102.721 144.043 103.941 144.043C105.16 144.043 105.926 144.706 105.926 146.45V159.633C105.926 161.376 105.16 162.039 103.941 162.039C102.721 162.039 101.955 161.376 101.955 159.633V146.45ZM98.1229 159.388C98.1229 163.294 100.178 165.526 103.941 165.526C107.703 165.526 109.758 163.294 109.758 159.388V146.694C109.758 142.788 107.703 140.556 103.941 140.556C100.178 140.556 98.1229 142.788 98.1229 146.694V159.388Z" fill="var(--fill-0, #D85A21)"/>
</g>
<g id="Group_7">
<path id="Vector_41" d="M120.977 165.247H124.913L119.583 151.716L124.913 140.835H121.081L116.065 151.472V140.835H112.233V165.247H116.065V157.749L117.249 155.517L120.977 165.247Z" fill="var(--fill-0, #D85A21)"/>
</g>
<g id="Group_8">
<path id="Vector_42" d="M135.922 165.247V144.322H142.192V140.835H132.09V165.247H135.922Z" fill="var(--fill-0, #D85A21)"/>
</g>
<g id="Group_9">
<path id="Vector_43" d="M157.381 140.835H153.375L151.633 149.205L150.727 154.89L149.543 149.17L147.453 140.835H143.655L148.951 159.667L148.916 159.877C148.602 161.655 147.487 162.004 145.536 161.865V165.282C150.867 165.631 152.364 163.434 153.27 159.04L157.381 140.835Z" fill="var(--fill-0, #D85A21)"/>
</g>
<g id="Group_10">
<path id="Vector_44" d="M165.08 165.247C168.913 165.247 170.864 163.12 170.864 159.214V156.598C170.864 152.692 168.913 150.565 165.08 150.565H162.851V144.322H169.749V140.835H159.019V165.247H165.08ZM162.851 161.76V154.053H165.08C166.3 154.053 167.031 154.611 167.031 156.354V159.458C167.031 161.202 166.3 161.76 165.08 161.76H162.851Z" fill="var(--fill-0, #D85A21)"/>
</g>
<g id="Group_11">
<path id="Vector_45" d="M177.273 144.322H183.892V140.835H173.441V165.247H183.892V161.76H177.273V154.611H182.533V151.123H177.273V144.322Z" fill="var(--fill-0, #D85A21)"/>
</g>
<g id="Group_12">
<path id="Vector_46" d="M191.905 140.835H186.262V165.247H190.093V156.075H191.905C195.737 156.075 197.619 153.948 197.619 150.042V146.868C197.619 142.962 195.737 140.835 191.905 140.835ZM191.905 144.322C193.125 144.322 193.786 144.88 193.786 146.624V150.286C193.786 152.03 193.125 152.588 191.905 152.588H190.093V144.322H191.905Z" fill="var(--fill-0, #D85A21)"/>
</g>
<g id="Group_13">
<path id="Vector_47" d="M203.227 154.785H207.582V165.247H211.483V140.835H207.582V151.297H203.227V140.835H199.395V165.247H203.227V154.785Z" fill="var(--fill-0, #D85A21)"/>
</g>
<g id="Group_14">
<path id="Vector_48" d="M222.771 140.835H217.162L213.26 165.247H216.778L217.441 160.818H222.144L222.805 165.247H226.673L222.771 140.835ZM219.775 145.159L221.621 157.505H217.928L219.775 145.159Z" fill="var(--fill-0, #D85A21)"/>
</g>
<g id="Group_15">
<path id="Vector_49" d="M227.334 144.322H231.34V165.247H235.173V144.322H239.179V140.835H227.334V144.322Z" fill="var(--fill-0, #D85A21)"/>
</g>
<g id="Group_16">
<path id="Vector_50" d="M244.369 146.45C244.369 144.706 245.136 144.043 246.355 144.043C247.574 144.043 248.341 144.706 248.341 146.45V159.633C248.341 161.376 247.574 162.039 246.355 162.039C245.136 162.039 244.369 161.376 244.369 159.633V146.45ZM240.537 159.388C240.537 163.294 242.593 165.526 246.355 165.526C250.118 165.526 252.173 163.294 252.173 159.388V146.694C252.173 142.788 250.118 140.556 246.355 140.556C242.593 140.556 240.537 142.788 240.537 146.694V159.388Z" fill="var(--fill-0, #D85A21)"/>
</g>
<g id="Group_17">
<path id="Vector_51" d="M260.291 140.835H254.647V165.247H258.479V156.075H260.291C264.123 156.075 266.004 153.948 266.004 150.042V146.868C266.004 142.962 264.123 140.835 260.291 140.835ZM260.291 144.322C261.51 144.322 262.172 144.88 262.172 146.624V150.286C262.172 152.03 261.51 152.588 260.291 152.588H258.479V144.322H260.291Z" fill="var(--fill-0, #D85A21)"/>
</g>
<g id="Group_18">
<path id="Vector_52" d="M276.281 140.835H270.673L266.771 165.247H270.289L270.951 160.818H275.654L276.316 165.247H280.183L276.281 140.835ZM273.285 145.159L275.132 157.505H271.439L273.285 145.159Z" fill="var(--fill-0, #D85A21)"/>
</g>
<g id="Group_19">
<path id="Vector_53" d="M295.163 140.835V150.739C295.163 152.379 294.397 153.25 293.177 153.25C291.958 153.25 290.948 152.483 290.948 150.844V140.835H287.115V151.158C287.115 154.506 288.753 156.773 291.888 156.773C292.933 156.773 294.327 156.319 295.163 155.413V165.247H298.995V140.835H295.163Z" fill="var(--fill-0, #D85A21)"/>
</g>
<g id="Group_20">
<path id="Vector_54" d="M305.648 144.322H312.267V140.835H301.816V165.247H312.267V161.76H305.648V154.611H310.908V151.123H305.648V144.322Z" fill="var(--fill-0, #D85A21)"/>
</g>
<g id="Group_21">
<path id="Vector_55" d="M313.557 165.282H314.149C317.981 165.282 319.584 163.539 319.723 159.075L320.141 144.322H323.486V165.247H327.388V140.835H316.553L315.926 159.284C315.856 161.551 315.299 161.795 313.557 161.795V165.282Z" fill="var(--fill-0, #D85A21)"/>
</g>
<g id="Group_22">
<path id="Vector_56" d="M333.518 165.247C333.727 164.62 333.866 164.236 333.866 162.248V158.412C333.866 156.145 334.633 155.308 336.375 155.308H337.699V165.247H341.531V140.835H335.748C331.776 140.835 330.069 142.683 330.069 146.45V148.368C330.069 150.879 330.87 152.518 332.578 153.32C330.661 154.122 330.034 155.971 330.034 158.517V162.283C330.034 163.469 329.999 164.341 329.616 165.247H333.518ZM337.699 144.322V151.821H336.201C334.772 151.821 333.901 151.193 333.901 149.24V146.833C333.901 145.09 334.494 144.322 335.852 144.322H337.699Z" fill="var(--fill-0, #D85A21)"/>
</g>
<g id="Group_23">
<path id="Vector_57" d="M350.414 165.247C354.247 165.247 356.198 163.12 356.198 159.214V156.598C356.198 152.692 354.247 150.565 350.414 150.565H348.185V144.322H355.083V140.835H344.353V165.247H350.414ZM348.185 161.76V154.053H350.414C351.634 154.053 352.365 154.611 352.365 156.354V159.458C352.365 161.202 351.634 161.76 350.414 161.76H348.185Z" fill="var(--fill-0, #D85A21)"/>
</g>
<g id="Group_24">
<path id="Vector_58" d="M365.917 154.053L367.485 148.054V165.247H370.934V140.835H366.718L363.583 150.914L362.19 156.285V140.835H358.776V165.247H362.712L365.917 154.053Z" fill="var(--fill-0, #D85A21)"/>
</g>
<g id="Group_25">
<path id="Vector_59" d="M377.482 154.785H381.837V165.247H385.739V140.835H381.837V151.297H377.482V140.835H373.651V165.247H377.482V154.785Z" fill="var(--fill-0, #D85A21)"/>
</g>
<g id="Group_26">
<path id="Vector_60" d="M396.017 156.145V159.633C396.017 161.376 395.25 162.004 394.031 162.004C392.812 162.004 392.045 161.376 392.045 159.633V146.45C392.045 144.706 392.812 144.043 394.031 144.043C395.25 144.043 396.017 144.706 396.017 146.45V149.065H399.64V146.694C399.64 142.788 397.689 140.556 393.927 140.556C390.164 140.556 388.213 142.788 388.213 146.694V159.388C388.213 163.294 390.164 165.526 393.927 165.526C397.689 165.526 399.64 163.294 399.64 159.388V156.145H396.017Z" fill="var(--fill-0, #D85A21)"/>
</g>
<g id="Group_27">
<path id="Vector_61" d="M410.717 165.247H414.654L409.324 151.716L414.654 140.835H410.822L405.806 151.472V140.835H401.973V165.247H405.806V157.749L406.99 155.517L410.717 165.247Z" fill="var(--fill-0, #D85A21)"/>
</g>
<g id="Group_28">
<path id="Vector_62" d="M419.914 146.45C419.914 144.706 420.68 144.043 421.9 144.043C423.119 144.043 423.885 144.706 423.885 146.45V159.633C423.885 161.376 423.119 162.039 421.9 162.039C420.68 162.039 419.914 161.376 419.914 159.633V146.45ZM416.082 159.388C416.082 163.294 418.137 165.526 421.9 165.526C425.662 165.526 427.718 163.294 427.718 159.388V146.694C427.718 142.788 425.662 140.556 421.9 140.556C418.137 140.556 416.082 142.788 416.082 146.694V159.388Z" fill="var(--fill-0, #D85A21)"/>
</g>
<g id="Group_29">
<path id="Vector_63" d="M434.129 165.247H430.192V140.835H433.606V156.285L435 150.914L438.135 140.835H442.35V165.247H438.901V148.054L437.334 154.053L434.129 165.247ZM438.065 135.394C437.96 136.685 437.368 136.999 436.323 136.999C435.313 136.999 434.79 136.685 434.686 135.394H432.317C432.386 137.766 433.641 139.266 436.323 139.266C439.041 139.266 440.399 137.766 440.399 135.394H438.065Z" fill="var(--fill-0, #D85A21)"/>
</g>
<g id="Group_30">
<path id="Vector_64" d="M454.055 146.45C454.055 144.706 454.822 144.043 456.041 144.043C457.26 144.043 458.027 144.706 458.027 146.45V159.633C458.027 161.376 457.26 162.039 456.041 162.039C454.822 162.039 454.055 161.376 454.055 159.633V146.45ZM450.223 159.388C450.223 163.294 452.279 165.526 456.041 165.526C459.803 165.526 461.859 163.294 461.859 159.388V146.694C461.859 142.788 459.803 140.556 456.041 140.556C452.279 140.556 450.223 142.788 450.223 146.694V159.388Z" fill="var(--fill-0, #D85A21)"/>
</g>
<g id="Group_31">
<path id="Vector_65" d="M470.428 165.247C474.261 165.247 476.211 163.12 476.211 159.214V156.598C476.211 152.692 474.261 150.565 470.428 150.565H468.199V144.322H475.097V140.835H464.367V165.247H470.428ZM468.199 161.76V154.053H470.428C471.647 154.053 472.379 154.611 472.379 156.354V159.458C472.379 161.202 471.647 161.76 470.428 161.76H468.199Z" fill="var(--fill-0, #D85A21)"/>
</g>
<g id="Group_32">
<path id="Vector_66" d="M477.71 165.282H478.302C482.134 165.282 483.737 163.539 483.876 159.075L484.294 144.322H487.638V165.247H491.54V140.835H480.706L480.079 159.284C480.009 161.551 479.452 161.795 477.71 161.795V165.282Z" fill="var(--fill-0, #D85A21)"/>
</g>
<g id="Group_33">
<path id="Vector_67" d="M502.966 140.835H497.357L493.456 165.247H496.974L497.636 160.818H502.339L503.001 165.247H506.868L502.966 140.835ZM499.97 145.159L501.817 157.505H498.124L499.97 145.159Z" fill="var(--fill-0, #D85A21)"/>
</g>
<g id="Group_34">
<path id="Vector_68" d="M516.135 156.145V159.633C516.135 161.376 515.369 162.004 514.149 162.004C512.93 162.004 512.163 161.376 512.163 159.633V146.45C512.163 144.706 512.93 144.043 514.149 144.043C515.369 144.043 516.135 144.706 516.135 146.45V149.065H519.758V146.694C519.758 142.788 517.807 140.556 514.045 140.556C510.282 140.556 508.332 142.788 508.332 146.694V159.388C508.332 163.294 510.282 165.526 514.045 165.526C517.807 165.526 519.758 163.294 519.758 159.388V156.145H516.135Z" fill="var(--fill-0, #D85A21)"/>
</g>
<g id="Group_35">
<path id="Vector_69" d="M520.978 144.322H524.984V165.247H528.816V144.322H532.823V140.835H520.978V144.322Z" fill="var(--fill-0, #D85A21)"/>
</g>
<g id="Group_36">
<path id="Vector_70" d="M541.637 154.053L543.204 148.054V165.247H546.653V140.835H542.438L539.302 150.914L537.909 156.285V140.835H534.495V165.247H538.431L541.637 154.053Z" fill="var(--fill-0, #D85A21)"/>
</g>
</g>
<defs>
<filter id="filter0_d_2042_429" x="0" y="2.98023e-08" width="566.629" height="187.499" filterUnits="userSpaceOnUse" color-interpolation-filters="sRGB">
<feFlood flood-opacity="0" result="BackgroundImageFix"/>
<feColorMatrix in="SourceAlpha" type="matrix" values="0 0 0 0 0 0 0 0 0 0 0 0 0 0 0 0 0 0 127 0" result="hardAlpha"/>
<feOffset dy="1.99755"/>
<feGaussianBlur stdDeviation="9.98777"/>
<feComposite in2="hardAlpha" operator="out"/>
<feColorMatrix type="matrix" values="0 0 0 0 0 0 0 0 0 0 0 0 0 0 0 0 0 0 0.4 0"/>
<feBlend mode="normal" in2="BackgroundImageFix" result="effect1_dropShadow_2042_429"/>
<feBlend mode="normal" in="SourceGraphic" in2="effect1_dropShadow_2042_429" result="shape"/>
</filter>
</defs>
</svg>
